Coordinates
version=1
nRows=4
nColumns=40
inDegrees=yes

Units are S.I. units (second, meters, Newtons, ...)
If the header above contains a line with 'inDegrees', this indicates whether rotational values are in degrees (yes) or radians (no).

endheader
time	pelvis_tilt	pelvis_list	pelvis_rotation	pelvis_tx	pelvis_ty	pelvis_tz	hip_flexion_r	hip_adduction_r	hip_rotation_r	knee_angle_r	knee_angle_r_beta	ankle_angle_r	subtalar_angle_r	mtp_angle_r	hip_flexion_l	hip_adduction_l	hip_rotation_l	knee_angle_l	knee_angle_l_beta	ankle_angle_l	subtalar_angle_l	mtp_angle_l	lumbar_extension	lumbar_bending	lumbar_rotation	arm_flex_r	arm_add_r	arm_rot_r	elbow_flex_r	pro_sup_r	wrist_flex_r	wrist_dev_r	arm_flex_l	arm_add_l	arm_rot_l	elbow_flex_l	pro_sup_l	wrist_flex_l	wrist_dev_l
     10.00000000000000000000	    -13.79699762918663275002	     -0.26674575382604770457	   -175.29246432348108442056	      0.26682910327819359120	      0.63538620913347410024	     -0.92313742947506893799	     48.35520577769457162276	    -49.66270195627721051324	     -4.59863335115055793523	     78.13303756296311064489	      1.36367876005811261564	     14.84215706749066221448	      0.00000000000000000000	      0.00000000000000000000	     56.05415831614663346727	    -49.68188228500466863125	     -0.36161451720703868817	     79.17116705115303432194	      1.38179753768907032097	      6.42114057125822679239	      0.00000000000000000000	      0.00000000000000000000	    -67.44071212925848612940	      3.92572105183757713576	     -6.92298969558170540495	     44.47750931639455984623	      2.49040285730904420447	     26.72973603036263412491	      5.10318781229288465084	     22.13984087208475060038	      0.00000000000000000000	      0.00000000000000000000	     48.99734352838766682225	     -9.57688721968414391483	     62.92610403512306049834	      5.75099999205926781798	     70.76648788087685204573	      0.00000000000000000000	      0.00000000000000000000
     10.00500000000000078160	    -13.84050063710614431045	     -0.23518806241103604182	   -175.23802299711223895429	      0.26655881366640682417	      0.63574121354375912052	     -0.92318598585565503356	     48.14473911872901368270	    -49.65886921647929597157	     -4.74208821495558208170	     78.10532231028926730687	      1.36319503764593186190	     14.81557760972562931556	      0.00000000000000000000	      0.00000000000000000000	     56.03410321914296332579	    -49.67328258406271146441	     -0.30124095440349818453	     79.12202334018158467188	      1.38093981812596999781	      6.35484051075910549855	      0.00000000000000000000	      0.00000000000000000000	    -67.46840452601382764897	      3.95087310798951563129	     -6.88453506564013828495	     44.41540027647202748540	      2.65656109340278501207	     27.13389003327516846298	      5.43481634885079856190	     18.71543504021810733207	      0.00000000000000000000	      0.00000000000000000000	     49.28783255580237465665	    -10.09088761838108538882	     67.37965474073602933913	      6.08198580116201892309	     76.98860082045369779280	      0.00000000000000000000	      0.00000000000000000000
     10.00999999999999978684	    -13.82338677103203572472	     -0.42346410396328215686	   -175.37072603720588404030	      0.26623472792368901851	      0.63610896394072302673	     -0.92355643704468848298	     48.42350580301275186912	    -49.65330113246199772448	     -4.31760825960998495532	     78.11884623389259729720	      1.36343107464059820622	     14.81579125879945557642	      0.00000000000000000000	      0.00000000000000000000	     55.59705864079991499693	    -49.67348075948407171154	     -0.79058637032923262389	     79.04997097559109420217	      1.37968226713001862471	      6.44155658265330988144	      0.00000000000000000000	      0.00000000000000000000	    -67.50523158871195050779	      3.73283932789171224442	     -7.06061885251375453976	     44.48218369753507062114	      2.70393286350111461402	     26.07742554923495248431	      5.34993414544090750695	     20.76352456675077817749	      0.00000000000000000000	      0.00000000000000000000	     49.10354544392033204758	     -9.92645898307631036062	     64.81953097327635759939	      5.99246498641409086616	     73.77874338470810755553	      0.00000000000000000000	      0.00000000000000000000
     10.01500000000000056843	    -13.84724474123049908769	     -0.36887620067695398030	   -175.29579565692790765752	      0.26601907165173444003	      0.63649032408780459313	     -0.92354246560339992023	     48.17469650136827397091	    -49.64476023703379325980	     -4.53348493393097218274	     78.05901173681668581139	      1.36238676566034855320	     14.85609628757599942617	      0.00000000000000000000	      0.00000000000000000000	     55.64005913093550503845	    -49.65945188160068113348	     -0.68215131056811439958	     79.00032782095711070269	      1.37881583063057910898	      6.32616277078147959401	      0.00000000000000000000	      0.00000000000000000000	    -67.52534111100960956264	      3.79175318366147084959	     -6.94051544263466801965	     44.57152232877136555089	      2.76141690224155000877	     25.59644121824958418188	      5.01231799128203547866	     21.53434867416643783145	      0.00000000000000000000	      0.00000000000000000000	     49.21299100550085370287	    -10.29417254996969788294	     69.04822818250656268901	      6.52294069965255030041	     72.52269702623854641388	      0.00000000000000000000	      0.00000000000000000000
